<?xml version="1.0" standalone="no"?>
<!DOCTYPE svg PUBLIC "-//W3C//DTD SVG 20010904//EN"
 "http://www.w3.org/TR/2001/REC-SVG-20010904/DTD/svg10.dtd">
<svg version="1.0" xmlns="http://www.w3.org/2000/svg"
 width="195.000000pt" height="195.000000pt" viewBox="0 0 195.000000 195.000000"
 preserveAspectRatio="xMidYMid meet">
<metadata>
Created by potrace 1.11, written by Peter Selinger 2001-2013
</metadata>
<g transform="translate(0.000000,195.000000) scale(0.100000,-0.100000)"
fill="#000000" stroke="none">
<path d="M51 1894 c-1 -42 5 -70 25 -112 14 -32 33 -73 41 -92 14 -35 30 -70
76 -170 23 -49 84 -185 147 -325 12 -27 40 -87 60 -132 21 -45 35 -84 32 -87
-3 -3 0 -6 6 -6 7 0 12 -4 12 -9 0 -8 13 -38 97 -220 37 -79 66 -145 68 -151
0 -3 11 -26 22 -53 12 -26 23 -51 23 -55 1 -4 10 -21 21 -38 10 -17 16 -34 12
-37 -3 -4 -2 -7 3 -7 6 0 16 -16 23 -36 7 -19 39 -92 72 -160 32 -69 59 -131
59 -139 0 -8 4 -15 8 -15 5 0 14 -11 20 -25 11 -24 15 -25 99 -25 l88 1 22 47
c12 26 41 88 65 137 23 50 43 96 44 104 2 8 6 17 11 20 4 3 9 11 10 18 1 6 19
47 38 90 78 169 122 266 124 278 1 6 10 18 18 27 9 10 13 18 9 18 -4 0 0 12 8
28 26 48 86 182 86 192 0 6 5 10 12 10 6 0 9 3 5 6 -3 4 1 21 10 38 10 17 17
33 18 36 0 3 8 21 17 40 22 47 68 150 104 230 15 36 32 68 37 71 5 3 8 9 8 13
-2 9 35 94 105 242 19 39 34 74 34 77 0 4 11 31 25 61 14 30 25 60 25 65 0 6
4 11 8 11 8 0 32 65 32 84 0 3 -425 6 -943 6 l-944 0 -2 -56z m1612 -161 c-8
-21 -23 -56 -33 -78 -10 -22 -44 -98 -75 -170 -32 -71 -66 -150 -78 -175 -11
-25 -21 -49 -22 -55 -2 -5 -14 -35 -28 -65 -14 -30 -66 -149 -117 -265 -50
-116 -99 -228 -109 -250 -10 -22 -31 -69 -46 -105 -15 -36 -32 -71 -37 -77 -6
-7 -7 -13 -3 -13 4 0 0 -11 -9 -25 -9 -13 -16 -33 -16 -44 0 -11 -7 -27 -16
-36 -15 -15 -17 -14 -30 11 -8 15 -12 29 -10 32 3 2 0 14 -6 26 -7 11 -12 24
-13 27 0 5 -12 33 -71 164 -12 28 -46 104 -74 170 -29 66 -65 148 -81 183 -16
35 -29 69 -29 76 0 8 -7 19 -15 26 -9 7 -14 15 -11 17 2 2 -12 39 -31 81 -19
42 -40 91 -48 107 -7 17 -22 51 -34 76 -67 150 -98 228 -93 233 3 3 0 6 -6 6
-7 0 -12 5 -12 11 0 6 -11 33 -25 60 -13 27 -22 49 -19 49 2 0 0 9 -6 20 -11
20 -8 20 604 20 l615 0 -16 -37z"/>
</g>
</svg>
